<svg xmlns="http://www.w3.org/2000/svg" width="80" height="80" viewBox="0 0 80 80">
  <g fill="none" fill-rule="evenodd">
    <path stroke="#202136" stroke-width="4" d="M8.98711078,41.5102438 C4.67792711,37.330073 2,31.4777682 2,25 C2,12.2974508 12.2974508,2 25,2 C34.5164898,2 42.6830701,7.7796498 46.1810701,16.0202787 M46.1810701,16.0202787 C37.2261533,16.4057954 29.7006003,22.249874 26.9098998,30.2777269 C25.2877758,28.999201 23.2339342,28.2352941 21,28.2352941 C15.7532949,28.2352941 11.5,32.4490847 11.5,37.6470588 C11.5,38.6855917 11.6697844,39.6848375 11.9833539,40.6190387 C10.9321521,40.7857497 9.9270197,41.0891435 8.98711078,41.5102438 L8.98711078,41.5102438"/>
    <path stroke="#202136" stroke-width="4" d="M13.875,64 C7.3166186,64 2,58.7327618 2,52.2352941 C2,46.3756464 6.32404564,41.5165534 11.9833539,40.6190387 C11.6697844,39.6848375 11.5,38.6855917 11.5,37.6470588 C11.5,32.4490847 15.7532949,28.2352941 21,28.2352941 C23.2339342,28.2352941 25.2877758,28.999201 26.9098998,30.2777269 C29.798126,21.9693272 37.7579221,16 47.125,16 C58.9300865,16 68.5,25.4810288 68.5,37.1764706 C68.5,38.3601579 68.4019723,39.5211622 68.213521,40.6519502 C73.7759307,41.6296929 78,46.4437831 78,52.2352941 C78,58.7327618 72.6833814,64 66.125,64 L13.875,64 Z"/>
  </g>
</svg>
