<svg xmlns="http://www.w3.org/2000/svg" width="80" height="80" viewBox="0 0 80 80">
  <g fill="none" fill-rule="evenodd">
    <path stroke="#202136" stroke-width="4" d="M13.875,56 C7.3166186,56 2,50.7327618 2,44.2352941 C2,38.3756464 6.32404564,33.5165534 11.9833539,32.6190387 C11.6697844,31.6848375 11.5,30.6855917 11.5,29.6470588 C11.5,24.4490847 15.7532949,20.2352941 21,20.2352941 C23.2339342,20.2352941 25.2877758,20.999201 26.9098998,22.2777269 C29.798126,13.9693272 37.7579221,8 47.125,8 C58.9300865,8 68.5,17.4810288 68.5,29.1764706 C68.5,30.3601579 68.4019723,31.5211622 68.213521,32.6519502 C73.7759307,33.6296929 78,38.4437831 78,44.2352941 C78,50.7327618 72.6833814,56 66.125,56 L13.875,56 Z"/>
    <path stroke="#202136" stroke-linecap="round" stroke-width="4" d="M60.5 66L60.5 78M19 66L19 78M32.5 66L32.5 78M46.5 66L46.5 78"/>
  </g>
</svg>
