<svg xmlns="http://www.w3.org/2000/svg" width="80" height="80" viewBox="0 0 80 80">
  <g fill="none" fill-rule="evenodd">
    <path stroke="#202136" stroke-linecap="round" stroke-width="4" d="M60.5 66L60.5 78M19 66L19 78M32.5 66L32.5 78M46.5 66L46.5 78"/>
    <path stroke="#202136" stroke-width="4" d="M56.747965,52 C56.912494,51.3607602 57,50.6905991 57,50 C57,45.581722 53.418278,42 49,42 C47.8307517,42 46.7200906,42.2508414 45.7188946,42.7016464 C45.9031041,41.8301169 46,40.9263741 46,40 C46,32.8202983 40.1797017,27 33,27 C25.8202983,27 20,32.8202983 20,40 C20,40.9263741 20.0968959,41.8301169 20.2811054,42.7016464 C19.2799094,42.2508414 18.1692483,42 17,42 C12.581722,42 9,45.581722 9,50 C9,50.3363058 9.02075174,50.6677648 9.06104459,50.9931663 L9.06104459,50.9931663 C4.9012096,49.1634144 2,45.0350144 2,40.2352941 C2,34.3756464 6.32404564,29.5165534 11.9833539,28.6190387 C11.6697844,27.6848375 11.5,26.6855917 11.5,25.6470588 C11.5,20.4490847 15.7532949,16.2352941 21,16.2352941 C23.2339342,16.2352941 25.2877758,16.999201 26.9098998,18.2777269 C29.798126,9.96932716 37.7579221,4 47.125,4 C58.9300865,4 68.5,13.4810288 68.5,25.1764706 C68.5,26.3601579 68.4019723,27.5211622 68.213521,28.6519502 C73.7759307,29.6296929 78,34.4437831 78,40.2352941 C78,46.7327618 72.6833814,52 66.125,52 L56.747965,52 C55.8598794,55.4504544 52.7276789,58 49,58 C33,58 33,58 17,58 C12.9180278,58 9.55010628,54.9427857 9.06104459,50.9931663 L9.06104459,50.9931663"/>
  </g>
</svg>
